<?xml version="1.0" encoding="iso-8859-1"?>
<!-- Generator: Adobe Illustrator 16.0.0, SVG Export Plug-In . SVG Version: 6.00 Build 0)  -->
<!DOCTYPE svg PUBLIC "-//W3C//DTD SVG 1.1//EN" "http://www.w3.org/Graphics/SVG/1.1/DTD/svg11.dtd">
<svg version="1.1" id="Capa_1" xmlns="http://www.w3.org/2000/svg" xmlns:xlink="http://www.w3.org/1999/xlink" x="0px" y="0px"
	 width="839px" height="839px" viewBox="0 0 839 839" style="enable-background:new 0 0 839 839;" xml:space="preserve">
<g>
	<path d="M325.174,334c1.8,11.8,4.3,23.5,7.101,35.2c15.399,63.399,53.1,120.899,98.8,166.5c40.8,40.8,89.2,73.399,140.3,100.399
		c79.2,41.8,162.3,57,251.3,59c8.3,0.2,13.2-9.3,8.3-16c-51.199-68.899-259.5-339-454-452.6c19.9-12.8,35.801-31.1,45.7-52.8
		l46.3-17.4c6.9-2.6,8.7-11.4,3.5-16.5l-41-39.9C420.674,43,370.674,0,310.674,0c0,0-1.1,0-3.2,0c0,0,0,0-0.1,0s-0.2,0-0.4,0
		c-0.399,0-0.8,0-1.199,0.1c-11.601,0.4-22.801,2.5-33.301,5.9c-44.2,12.8-114.7,52.9-142.3,177.8c-17.1,77.3,5.5,148.8,49.4,208.4
		c12.6,66.699,53.3,181.8,184.3,233.6c23.8,9.4,46.4,17,68,23v106.3h-250.8c-1.7-10.6-4.6-24.1-9.4-38.7
		c-12.8-39.1-34.1-69.399-62-88.8c-7.4-5.1-17.6-2.6-21.8,5.4l-21.1,40.399c-3.3,6.301-1.7,14,3.8,18.5
		c19,15.4,29.2,41.9,34.2,63.101h-83.7c-8.3,0-15,6.7-15,15v54c0,8.3,6.7,15,15,15h734.8c8.3,0,15-6.7,15-15v-54c0-8.3-6.7-15-15-15
		h-247.6c2-37.2,39.5-86.9,38.6-87.5c-3.2-2.101-6.4-4.2-9.6-6.4c-100-67.899-188.4-168.5-209.4-290.899
		c-2.1-14.4-3.6-28.7-4.2-43.2c-0.1-3.9-0.2-6-0.2-6s0.301,2.1,0.801,5.899C324.474,329.3,324.874,331.7,325.174,334z M347.474,70.7
		c13.801,0,25,11.2,25,25c0,13.8-11.199,25-25,25c-6.699,0-12.899-2.7-17.399-7c-4.7-4.6-7.7-10.9-7.7-18c0-4,1-7.9,2.7-11.2
		C329.274,76.3,337.674,70.7,347.474,70.7z"/>
</g>
<g>
</g>
<g>
</g>
<g>
</g>
<g>
</g>
<g>
</g>
<g>
</g>
<g>
</g>
<g>
</g>
<g>
</g>
<g>
</g>
<g>
</g>
<g>
</g>
<g>
</g>
<g>
</g>
<g>
</g>
</svg>
